name rise44.9368peak50.754fall52.0217.mot
datacolumns 19
datarows 12
range 21.96325200000000 21.98158800000000
endheader
time	ground_force1_vx	ground_force1_vy	ground_force1_vz	ground_force1_px	ground_force1_py	ground_force1_pz	ground_force2_vx	ground_force2_vy	ground_force2_vz	ground_force2_px	ground_force2_py	ground_force2_pz	ground_torque1_x	ground_torque1_y	ground_torque1_z	ground_torque2_x	ground_torque2_y	ground_torque2_z	
21.96325200000000	7.60161500000000	700.23373400000003	45.04725200000000	0.27129200000000	0.00000000000000	0.10400000000000	0.00000000000000	0.00000000000000	0.00000000000000	0.00000000000000	0.00000000000000	0.00000000000000	0.00000000000000	23.45259000000000	0.00000000000000	0.00000000000000	0.00000000000000	0.00000000000000	
21.96492000000000	7.19676600000000	700.36426600000004	44.99427100000000	0.27051000000000	0.00000000000000	0.10391200000000	0.00000000000000	0.00000000000000	0.00000000000000	0.00000000000000	0.00000000000000	0.00000000000000	0.00000000000000	23.45363600000000	0.00000000000000	0.00000000000000	0.00000000000000	0.00000000000000	
21.96658500000000	6.79033000000000	700.51857600000005	44.94357400000000	0.26974500000000	0.00000000000000	0.10382400000000	0.00000000000000	0.00000000000000	0.00000000000000	0.00000000000000	0.00000000000000	0.00000000000000	0.00000000000000	23.45872500000000	0.00000000000000	0.00000000000000	0.00000000000000	0.00000000000000	
21.96826500000000	6.38212900000000	700.69606399999998	44.89502600000000	0.26899600000000	0.00000000000000	0.10373400000000	0.00000000000000	0.00000000000000	0.00000000000000	0.00000000000000	0.00000000000000	0.00000000000000	0.00000000000000	23.46774700000000	0.00000000000000	0.00000000000000	0.00000000000000	0.00000000000000	
21.96992300000000	5.97198200000000	700.89618599999994	44.84850300000000	0.26826200000000	0.00000000000000	0.10364300000000	0.00000000000000	0.00000000000000	0.00000000000000	0.00000000000000	0.00000000000000	0.00000000000000	0.00000000000000	23.48059400000000	0.00000000000000	0.00000000000000	0.00000000000000	0.00000000000000	
21.97159000000000	5.55971300000000	701.11845500000004	44.80389200000000	0.26754200000000	0.00000000000000	0.10355200000000	0.00000000000000	0.00000000000000	0.00000000000000	0.00000000000000	0.00000000000000	0.00000000000000	0.00000000000000	23.49715600000000	0.00000000000000	0.00000000000000	0.00000000000000	0.00000000000000	
21.97325200000000	5.14514300000000	701.36243899999999	44.76108700000000	0.26683400000000	0.00000000000000	0.10345900000000	0.00000000000000	0.00000000000000	0.00000000000000	0.00000000000000	0.00000000000000	0.00000000000000	0.00000000000000	23.51732500000000	0.00000000000000	0.00000000000000	0.00000000000000	0.00000000000000	
21.97492300000000	4.72809600000000	701.62776699999995	44.71999300000000	0.26613800000000	0.00000000000000	0.10336600000000	0.00000000000000	0.00000000000000	0.00000000000000	0.00000000000000	0.00000000000000	0.00000000000000	0.00000000000000	23.54099400000000	0.00000000000000	0.00000000000000	0.00000000000000	0.00000000000000	
21.97658700000000	4.30839600000000	701.91412400000002	44.68052500000000	0.26545100000000	0.00000000000000	0.10327300000000	0.00000000000000	0.00000000000000	0.00000000000000	0.00000000000000	0.00000000000000	0.00000000000000	0.00000000000000	23.56805800000000	0.00000000000000	0.00000000000000	0.00000000000000	0.00000000000000	
21.97825200000000	3.88586800000000	702.22125700000004	44.64261000000000	0.26477300000000	0.00000000000000	0.10317900000000	0.00000000000000	0.00000000000000	0.00000000000000	0.00000000000000	0.00000000000000	0.00000000000000	0.00000000000000	23.59841300000000	0.00000000000000	0.00000000000000	0.00000000000000	0.00000000000000	
21.97992200000000	3.46033900000000	702.54896799999995	44.60618400000000	0.26410200000000	0.00000000000000	0.10308400000000	0.00000000000000	0.00000000000000	0.00000000000000	0.00000000000000	0.00000000000000	0.00000000000000	0.00000000000000	23.63196000000000	0.00000000000000	0.00000000000000	0.00000000000000	0.00000000000000	
21.98158800000000	3.03163800000000	702.89712099999997	44.57119400000000	0.26343700000000	0.00000000000000	0.10298900000000	0.00000000000000	0.00000000000000	0.00000000000000	0.00000000000000	0.00000000000000	0.00000000000000	0.00000000000000	23.66860000000000	0.00000000000000	0.00000000000000	0.00000000000000	0.00000000000000	
